<?xml version="1.0" standalone="no"?>
<!DOCTYPE svg PUBLIC "-//W3C//DTD SVG 20010904//EN"
 "http://www.w3.org/TR/2001/REC-SVG-20010904/DTD/svg10.dtd">
<svg version="1.0" xmlns="http://www.w3.org/2000/svg"
 width="300.000000pt" height="300.000000pt" viewBox="0 0 300.000000 300.000000"
 preserveAspectRatio="xMidYMid meet">
<g transform="translate(0.000000,300.000000) scale(0.100000,-0.100000)"
fill="#000000" stroke="none">
<path d="M984 2211 c-136 -33 -291 -123 -373 -216 -31 -35 -33 -36 -56 -21
-80 52 -195 -24 -195 -129 0 -47 25 -99 57 -120 19 -13 23 -22 19 -40 -3 -13
-11 -59 -17 -102 -5 -43 -19 -107 -30 -142 -39 -128 -19 -333 46 -460 86 -170
267 -245 470 -196 80 19 629 21 690 3 26 -9 109 -13 235 -13 188 0 197 1 245
25 28 14 54 35 60 47 7 16 26 26 77 38 37 10 102 35 145 56 58 29 90 39 126
39 57 0 159 25 192 46 80 52 69 208 -19 279 -20 17 -59 49 -86 73 -28 23 -56
42 -63 42 -8 0 -19 31 -29 85 -9 46 -31 114 -48 150 -32 68 -130 182 -181 212
-23 14 -29 25 -29 51 0 18 -9 51 -21 73 -26 52 -92 84 -148 74 -47 -9 -107
-43 -126 -72 -21 -32 -41 -29 -79 12 -38 39 -85 47 -135 20 -27 -13 -30 -13
-57 16 -37 39 -154 112 -223 139 -132 51 -311 64 -447 31z m322 -37 c118 -27
223 -79 318 -158 l29 -24 -17 -41 c-10 -25 -16 -70 -16 -115 0 -64 3 -76 25
-100 16 -17 34 -26 55 -26 29 0 80 39 80 62 0 5 20 30 44 56 25 26 48 60 52
76 l7 29 76 -6 c168 -13 307 -93 395 -227 57 -87 59 -92 39 -165 -16 -60 -16
-64 1 -90 10 -15 41 -38 70 -51 87 -40 123 -94 111 -171 -6 -43 -47 -108 -94
-149 -63 -57 -207 -131 -287 -148 -30 -7 -31 -6 -43 48 -17 76 -72 137 -143
159 -29 9 -117 20 -195 26 -164 11 -208 26 -277 94 -65 65 -93 129 -112 249
-17 113 -32 145 -69 154 -86 21 -159 -168 -135 -346 26 -188 78 -308 176 -406
l64 -64 -211 0 -211 0 36 41 c103 121 83 323 -37 386 -19 9 -52 13 -100 12
l-72 -3 -30 105 c-16 57 -40 121 -52 141 -54 91 -181 125 -277 73 l-48 -26 7
48 c16 112 92 259 179 352 167 176 432 259 662 205z m-266 -1059 c40 -21 57
-78 40 -130 -28 -86 -136 -163 -240 -172 -49 -5 -60 -2 -84 19 -77 66 8 222
151 278 59 23 95 25 133 5z"/>
<path d="M2105 1585 c-5 -2 -22 -6 -38 -9 -15 -4 -46 -23 -69 -44 -74 -67 -97
-164 -58 -249 27 -60 71 -85 137 -80 59 4 85 22 113 77 10 19 41 56 69 82 46
42 51 52 51 89 0 35 -6 48 -38 79 -45 45 -121 70 -167 55z"/>
<path d="M2478 1310 c-33 -6 -68 -34 -68 -54 0 -20 37 -63 59 -69 29 -7 59 18
70 59 16 57 -2 76 -61 64z"/>
</g>
</svg>
